<svg width="200" height="200" viewBox="0 0 200 200" fill="none" xmlns="http://www.w3.org/2000/svg">
<path d="M122.27 72.29C123.73 71.96 124.91 71.68 125.67 71.46C123.6 69.06 122.77 67.86 121.42 66.15C121.42 66.15 121.69 68.01 122.26 72.27L122.27 72.29ZM123.27 79.75V79.84C124.74 90.1 126.46 101.44 126.58 103.65L87.32 103.58C87.45 96.52 90.32 76.75 91.97 66.58C91.1 66.94 75.79 72.58 73.97 70.73V70.68C72.7 63.4 71.07 55.46 70.14 49.48L74.44 47.61C75.11 49.7 78.03 57.35 79.86 61.36C83.9625 57.5835 88.4428 54.2392 93.23 51.38C96.23 49.76 101.13 49.96 101.13 49.96C101.193 49.4996 101.368 49.0616 101.64 48.6849C101.912 48.3082 102.273 48.0043 102.69 47.8L102.98 47.69C106.33 46.77 112.47 47.43 113.24 47.9C113.885 48.3989 114.337 49.1055 114.52 49.9C114.52 49.9 122.69 51.1 125.09 53.07C125.09 53.07 132.37 63.02 136.01 70.83C137.35 73.7 136.84 75.46 134.4 76.83C133 77.77 128.2 78.89 123.29 79.75H123.27ZM109.72 75.75C109.9 75.27 108.79 73.92 107.48 73.81H107.35L107.85 69.53C107.85 69 105.85 68.53 103.44 68.53C101.03 68.53 99.04 68.97 99.04 69.53C99.0414 69.5916 99.0624 69.6511 99.1 69.7L99.64 74.45C99.6355 74.4765 99.6355 74.5035 99.64 74.53C99.4958 74.5207 99.3513 74.5428 99.2164 74.5947C99.0816 74.6466 98.9596 74.7272 98.8588 74.8308C98.7581 74.9344 98.681 75.0586 98.6329 75.1948C98.5847 75.331 98.5667 75.4761 98.58 75.62C98.6299 75.9566 98.7594 76.2764 98.9577 76.5529C99.1559 76.8294 99.4173 77.0547 99.72 77.21C99.5872 77.1806 99.4497 77.1808 99.3169 77.2103C99.1842 77.2399 99.0596 77.2982 98.9519 77.3812C98.8441 77.4641 98.7559 77.5697 98.6934 77.6904C98.6309 77.8112 98.5956 77.9441 98.59 78.08C98.6538 78.3834 98.7873 78.6679 98.98 78.9108C99.1726 79.1538 99.4191 79.3487 99.7 79.48C99.5775 79.4395 99.4474 79.4282 99.3197 79.4468C99.1921 79.4654 99.0706 79.5135 98.9648 79.5872C98.859 79.661 98.7719 79.7584 98.7103 79.8717C98.6487 79.985 98.6144 80.1111 98.61 80.24C98.61 80.72 99.29 81.32 100.51 81.74V81.98L100.81 84.67C101.645 84.9141 102.51 85.042 103.38 85.05C104.328 85.0305 105.271 84.903 106.19 84.67L106.47 82.13V81.97C107.729 81.7404 108.962 81.3853 110.15 80.91L110.32 80.77C109.43 79.88 108.79 77 109.74 75.75H109.72Z" fill="black"/>
<path d="M102.78 180.92V180.86H86.59C86.12 178.2 88.1 177.03 90.19 176.79C94.54 176.28 99.76 173.51 100.57 173.34H109.49C109.49 174.88 109.49 175.82 109.49 176.01V176.13C108.471 176.442 107.427 176.666 106.37 176.8C104.28 177.07 102.29 178.24 102.78 180.92Z" fill="black"/>
<path d="M102.78 180.86V180.92C102.29 178.24 104.28 177.07 106.37 176.83C107.427 176.696 108.471 176.472 109.49 176.16C112.92 175.16 116.13 173.51 116.75 173.38H125.9C125.9 177.47 125.85 180.18 125.9 180.88L102.78 180.86Z" fill="black"/>
<path d="M107.1 29.67C107.21 29.6777 107.312 29.7281 107.385 29.8104C107.458 29.8926 107.496 30.0002 107.49 30.11C107.48 30.2205 107.427 30.3228 107.343 30.3955C107.26 30.4682 107.151 30.5056 107.04 30.5C106.93 30.4898 106.829 30.4369 106.758 30.3528C106.687 30.2686 106.652 30.1599 106.66 30.05C106.662 29.9956 106.676 29.9423 106.7 29.8934C106.723 29.8444 106.757 29.8008 106.798 29.7652C106.839 29.7297 106.887 29.7029 106.939 29.6865C106.991 29.6701 107.046 29.6645 107.1 29.67Z" fill="black"/>
<path d="M101.61 29.52C101.709 29.541 101.798 29.5973 101.859 29.6784C101.92 29.7595 101.949 29.8599 101.942 29.9612C101.935 30.0624 101.891 30.1575 101.819 30.229C101.747 30.3005 101.651 30.3435 101.55 30.35C101.49 30.3539 101.43 30.3449 101.374 30.3236C101.318 30.3023 101.267 30.2693 101.225 30.2267C101.183 30.1841 101.15 30.133 101.129 30.0767C101.108 30.0205 101.1 29.9604 101.104 29.9006C101.108 29.8408 101.125 29.7825 101.154 29.7299C101.183 29.6772 101.223 29.6313 101.27 29.5952C101.318 29.5592 101.374 29.5338 101.432 29.5208C101.491 29.5078 101.551 29.5076 101.61 29.52Z" fill="black"/>
<path d="M92 66.61C91.13 66.97 75.82 72.61 74 70.76" stroke="black" stroke-width="0.86" stroke-miterlimit="10"/>
<path d="M112.55 26.33C112.43 25.49 112.3 24.51 112.11 23.51C111.876 21.8749 111.237 20.3244 110.25 19C107.96 16.44 105.5 17.4 103.41 19.55C102.81 20.1713 102.262 20.8402 101.77 21.55C100.275 23.6909 99.1241 26.0529 98.36 28.55C97.48 32.01 102.36 39.81 103.77 40.37C103.939 40.4318 104.113 40.4787 104.29 40.51C106.35 40.9 108.97 39.06 109.85 37.25" stroke="black" stroke-width="0.86" stroke-miterlimit="10" stroke-linecap="round"/>
<path d="M113.26 47.93C113.26 42.01 113.58 36.63 113.09 30.73" stroke="black" stroke-width="0.86" stroke-miterlimit="10"/>
<path d="M104.34 40.25C104.335 40.3299 104.335 40.4101 104.34 40.49C103.82 42.82 103.68 45.7 102.72 47.77" stroke="black" stroke-width="0.86" stroke-miterlimit="10"/>
<path d="M111.73 27.38C111.977 27.0145 112.266 26.6789 112.59 26.38C114.93 24.38 116.48 28.83 115.52 30.09C115.217 30.4086 114.826 30.6299 114.397 30.7261C113.968 30.8222 113.52 30.7888 113.11 30.63C112.922 30.5786 112.741 30.5047 112.57 30.41" stroke="black" stroke-width="0.86" stroke-miterlimit="10" stroke-linecap="round"/>
<path d="M101.79 21.53C101.23 21.47 93.46 19.9 94.57 17.72C95.21 16.48 99.33 17.8 103.43 19.5C107.33 21.12 111.23 23.08 112.13 23.5L112.27 23.56" stroke="black" stroke-width="0.86" stroke-miterlimit="10"/>
<path d="M106.31 27.82C106.719 27.6943 107.151 27.6677 107.572 27.7424C107.993 27.8172 108.39 27.9912 108.73 28.25" stroke="black" stroke-width="0.86" stroke-miterlimit="10" stroke-linecap="round"/>
<path d="M113 28.19C113.43 28.5754 113.983 28.7952 114.56 28.81" stroke="black" stroke-width="0.86" stroke-miterlimit="10" stroke-linecap="round"/>
<path d="M100.88 28C101.54 27.7 103.03 27.78 103.3 28.43C103.73 29.48 103.09 31.66 102.82 32.91C102.63 33.76 102.33 35.41 103.82 34.97" stroke="black" stroke-width="0.86" stroke-miterlimit="10" stroke-linecap="round"/>
<path d="M105.87 37.07C105.692 37.2619 105.474 37.4114 105.23 37.5077C104.987 37.6039 104.725 37.6444 104.465 37.6262C104.204 37.608 103.95 37.5315 103.723 37.4023C103.495 37.2732 103.299 37.0947 103.15 36.88" stroke="black" stroke-width="0.86" stroke-miterlimit="10" stroke-linecap="round"/>
<path d="M109.73 149.14C109.64 159.8 109.51 169 109.47 173.37C109.47 174.91 109.47 175.85 109.47 176.04" stroke="black" stroke-width="0.86" stroke-miterlimit="10"/>
<path d="M119.68 106.77C119.56 111.05 122.49 113.63 126.15 114.68C127.2 114.979 128.28 115.156 129.37 115.21" stroke="black" stroke-width="0.86" stroke-miterlimit="10" stroke-linecap="round"/>
<path d="M125.86 180.86C125.86 180.16 125.86 177.45 125.86 173.36C125.97 160.91 126.22 135.58 126.11 114.68C126.11 110.96 126.06 107.38 126.01 104.04" stroke="black" stroke-width="0.86" stroke-linecap="round" stroke-linejoin="round"/>
<path d="M102.78 180.92L125.86 181.02C125.86 181.02 125.86 180.95 125.86 180.88" stroke="black" stroke-width="0.86" stroke-linecap="round" stroke-linejoin="round"/>
<path d="M104.16 111.82C104.71 124.42 106.593 136.927 109.78 149.13C111.89 157.63 114.34 165.76 116.7 173.26V173.36C116.08 173.49 112.87 175.15 109.44 176.14C108.421 176.452 107.377 176.676 106.32 176.81C104.23 177.05 102.24 178.22 102.73 180.9" stroke="black" stroke-width="0.86" stroke-linecap="round" stroke-linejoin="round"/>
<path d="M88.11 103.7C88.73 131.29 94.77 155 100.55 173.36C99.74 173.53 94.55 176.3 90.17 176.81C88.08 177.05 86.1 178.22 86.57 180.88H103" stroke="black" stroke-width="0.86" stroke-linecap="round" stroke-linejoin="round"/>
<path d="M100.18 173.37H100.55H109.32" stroke="black" stroke-width="0.86" stroke-miterlimit="10"/>
<path d="M116.74 173.37H116.75H125.88" stroke="black" stroke-width="0.86" stroke-miterlimit="10"/>
<path d="M125.86 181.02V182.76H102.78V180.92V180.87H125.86V180.88V181.02Z" stroke="black" stroke-width="0.86" stroke-linecap="round" stroke-linejoin="round"/>
<path d="M102.75 180.92V182.76H86.59V180.9V180.87H102.75V180.92Z" stroke="black" stroke-width="0.86" stroke-linecap="round" stroke-linejoin="round"/>
<path d="M123.31 79.84C124.78 90.1 126.5 101.44 126.62 103.65L87.36 103.58C87.49 96.52 90.36 76.75 92.01 66.58C92.01 66.29 92.1 66.02 92.14 65.75" stroke="black" stroke-width="0.86" stroke-linecap="round" stroke-linejoin="round"/>
<path d="M74.49 47.45C76.19 44.98 74.76 40.82 74.28 39.17C74 38.17 72.55 38.25 72.7 39.67C72.82 40.89 72.99 42.18 72.49 42.67" stroke="black" stroke-width="0.86" stroke-miterlimit="10" stroke-linecap="round"/>
<path d="M72.42 42.83C72.4245 42.8035 72.4245 42.7765 72.42 42.75C71.45 40 68.3 35 66.67 36C66.5241 36.077 66.4129 36.2067 66.359 36.3627C66.3052 36.5187 66.3127 36.6893 66.38 36.84C66.5666 37.2503 66.8355 37.6179 67.17 37.92C68.2234 38.8474 69.0453 40.0083 69.57 41.31" stroke="black" stroke-width="0.86" stroke-miterlimit="10" stroke-linecap="round"/>
<path d="M66.33 36.87C66.152 36.6365 65.9218 36.448 65.6579 36.3195C65.3939 36.191 65.1035 36.1261 64.81 36.13C64.6125 36.119 64.4178 36.1798 64.2616 36.3011C64.1054 36.4223 63.9983 36.596 63.96 36.79C63.8 37.29 64.15 37.69 64.5 38.02C65.7827 39.3169 66.895 40.772 67.81 42.35" stroke="black" stroke-width="0.86" stroke-miterlimit="10" stroke-linecap="round"/>
<path d="M70 49.52C68.6 49.36 67.51 46.11 67.14 45.04C66.5143 43.4802 65.6057 42.0496 64.46 40.82C64.04 40.33 63.18 39.52 63.23 38.82C63.2631 38.6867 63.3233 38.5617 63.4068 38.4527C63.4903 38.3437 63.5954 38.253 63.7155 38.1864C63.8356 38.1198 63.9681 38.0787 64.1048 38.0655C64.2415 38.0524 64.3794 38.0675 64.51 38.11" stroke="black" stroke-width="0.86" stroke-miterlimit="10" stroke-linecap="round"/>
<path d="M70.46 44.66C70.06 43.34 71.67 42.79 72.46 42.82" stroke="black" stroke-width="0.86" stroke-miterlimit="10" stroke-linecap="round"/>
<path d="M79.55 61.72L79.86 61.44C83.9587 57.6356 88.4391 54.2644 93.23 51.38C96.23 49.76 101.13 49.96 101.13 49.96C101.193 49.4996 101.368 49.0616 101.64 48.6849C101.912 48.3082 102.273 48.0043 102.69 47.8L102.98 47.69C106.33 46.77 112.47 47.43 113.24 47.9C113.885 48.3989 114.337 49.1055 114.52 49.9C114.52 49.9 122.69 51.1 125.09 53.07C125.09 53.07 132.37 63.02 136.01 70.83C137.35 73.7 136.84 75.46 134.4 76.83C132.93 77.67 128.18 78.83 123.27 79.65C117.48 80.65 111.48 81.35 110.48 80.82C110.391 80.7732 110.31 80.7125 110.24 80.64C109.41 79.78 108.77 76.91 109.72 75.64C109.911 75.3897 110.178 75.2075 110.48 75.12C114.67 73.91 119.1 72.91 122.25 72.18C123.71 71.85 124.89 71.57 125.65 71.35C123.58 68.95 122.75 67.75 121.4 66.04C121.4 66.04 121.67 67.9 122.24 72.16" stroke="black" stroke-width="0.86" stroke-linecap="round" stroke-linejoin="round"/>
<path d="M107.24 74.84C106.64 76.39 103.65 76.12 102.34 75.91C101.88 75.84 100 75.3 99.67 74.46C99.6655 74.4335 99.6655 74.4065 99.67 74.38" stroke="black" stroke-width="0.86" stroke-miterlimit="10"/>
<path d="M99.68 74.47C99.5358 74.4607 99.3913 74.4828 99.2564 74.5347C99.1216 74.5866 98.9996 74.6672 98.8988 74.7708C98.7981 74.8744 98.721 74.9986 98.6729 75.1348C98.6247 75.2711 98.6067 75.4161 98.62 75.56C98.6699 75.8966 98.7994 76.2164 98.9977 76.4929C99.1959 76.7694 99.4573 76.9947 99.76 77.15C101.194 77.9839 102.877 78.2816 104.51 77.99" stroke="black" stroke-width="0.86" stroke-miterlimit="10" stroke-linecap="round"/>
<path d="M99.74 77.16C99.6072 77.1306 99.4697 77.1308 99.3369 77.1603C99.2042 77.1899 99.0796 77.2482 98.9719 77.3312C98.8641 77.4141 98.7759 77.5197 98.7134 77.6404C98.6509 77.7612 98.6156 77.8941 98.61 78.03C98.6738 78.3334 98.8073 78.6179 99 78.8608C99.1926 79.1038 99.4391 79.2987 99.72 79.43C101.157 80.1697 102.793 80.4324 104.39 80.18" stroke="black" stroke-width="0.86" stroke-miterlimit="10" stroke-linecap="round"/>
<path d="M99.7 79.45C99.5775 79.4095 99.4474 79.3981 99.3197 79.4168C99.1921 79.4354 99.0706 79.4835 98.9648 79.5572C98.859 79.631 98.7719 79.7284 98.7103 79.8417C98.6487 79.955 98.6144 80.0811 98.61 80.21C98.61 80.69 99.29 81.29 100.51 81.71C102.427 82.2769 104.455 82.3559 106.41 81.94C107.669 81.7104 108.902 81.3553 110.09 80.88" stroke="black" stroke-width="0.86" stroke-miterlimit="10" stroke-linecap="round"/>
<path d="M109.72 75.73C109.9 75.25 108.79 73.9 107.48 73.79" stroke="black" stroke-width="0.86" stroke-miterlimit="10" stroke-linecap="round"/>
<path d="M99.08 69.47L99.1 69.64L99.64 74.39L99.65 74.45" stroke="black" stroke-width="0.86" stroke-linecap="round" stroke-linejoin="round"/>
<path d="M107.86 69.47L107.85 69.5L107.35 73.78L107.23 74.85" stroke="black" stroke-width="0.86" stroke-linecap="round" stroke-linejoin="round"/>
<path d="M99.1 69.64C99.0624 69.5911 99.0414 69.5316 99.04 69.47C99.04 68.94 101.04 68.47 103.44 68.47C105.84 68.47 107.85 68.91 107.85 69.47C107.79 69.99 105.85 70.41 103.45 70.41C101.26 70.44 99.45 70.09 99.1 69.64Z" stroke="black" stroke-width="0.86" stroke-linecap="round" stroke-linejoin="round"/>
<path d="M106.44 82.1L106.16 84.64C105.241 84.873 104.298 85.0005 103.35 85.02C102.48 85.012 101.615 84.8841 100.78 84.64L100.48 81.95" stroke="black" stroke-width="0.86" stroke-linecap="round" stroke-linejoin="round"/>
<path d="M73.92 70.71C72.65 63.43 71.02 55.49 70.09 49.51L74.39 47.64C75.06 49.73 77.98 57.38 79.81 61.39" stroke="black" stroke-width="0.86" stroke-linecap="round" stroke-linejoin="round"/>
<path d="M104.61 67.17C104.864 66.9062 105.06 66.5916 105.184 66.2469C105.308 65.9023 105.358 65.5353 105.33 65.17C105.087 64.6015 104.8 64.0531 104.47 63.53C103.84 62.09 104.47 61.04 105.47 60.05" stroke="white" stroke-width="0.86" stroke-miterlimit="10" stroke-linecap="round"/>
<path d="M102.08 67.17C102.334 66.9062 102.53 66.5916 102.654 66.2469C102.778 65.9023 102.828 65.5353 102.8 65.17C102.553 64.6034 102.266 64.0553 101.94 63.53C101.3 62.09 101.94 61.04 102.94 60.05" stroke="white" stroke-width="0.86" stroke-miterlimit="10" stroke-linecap="round"/>
<path d="M116.39 173.37C115 173.91 110.39 176.25 106.39 176.72C104.29 176.96 102.76 177.72 102.8 181.09" stroke="white" stroke-width="0.86" stroke-linejoin="round"/>
<path d="M109.14 75.41C112.88 73.41 119.14 72.3 122.36 71.53" stroke="white" stroke-width="0.86" stroke-linecap="square" stroke-linejoin="round"/>
<path d="M124 80.36L123.22 80.5C117.32 81.5 110.78 81.5 109.22 80.73" stroke="white" stroke-width="0.86" stroke-linecap="round" stroke-linejoin="round"/>
</svg>
