<svg width="200" height="200" viewBox="0 0 200 200" fill="none" xmlns="http://www.w3.org/2000/svg">
<path d="M155.24 145.27L134.91 156.27L131.32 149.63L131.38 149.53L139.38 145.36H139.53C139.83 145.27 140.83 145.22 142.18 145.1C144.906 144.933 147.597 144.398 150.18 143.51C151.72 142.9 153.46 142.82 154.55 144.06C154.857 144.411 155.091 144.818 155.24 145.26V145.27Z" fill="black"/>
<path d="M118.26 158.28C118.57 158.35 119.47 158.78 120.72 159.28C123.197 160.437 125.822 161.247 128.52 161.69C130.16 161.88 131.74 162.64 132.11 164.25C132.197 164.706 132.197 165.174 132.11 165.63C132.114 165.663 132.114 165.697 132.11 165.73H109V158.16H118H118.18L118.26 158.28Z" fill="black" stroke="black" stroke-width="0.86" stroke-miterlimit="10"/>
<path d="M117.52 131.64L117.45 129.76C117.48 130.36 117.5 131 117.52 131.64Z" fill="black"/>
<path d="M90.78 87.21C91.1197 86.9632 91.4038 86.6479 91.6139 86.2845C91.8241 85.921 91.9556 85.5175 92 85.1C92.0103 84.9424 91.9868 84.7843 91.9312 84.6365C91.8755 84.4887 91.7889 84.3544 91.6772 84.2427C91.5655 84.131 91.4313 84.0445 91.2835 83.9888C91.1356 83.9332 90.9776 83.9097 90.82 83.92C90.772 84.0381 90.7081 84.1492 90.63 84.25L90.72 82.44L90.92 78.78C90.937 78.6754 90.9327 78.5684 90.9074 78.4654C90.8822 78.3625 90.8365 78.2657 90.773 78.1808C90.7096 78.0959 90.6297 78.0246 90.5381 77.9712C90.4465 77.9178 90.3451 77.8834 90.24 77.87H90L90.62 73.62H95.24L95.35 72.3H89.48L88.65 77.89H85.85C85.8142 77.4029 85.6393 76.9363 85.346 76.5457C85.0527 76.1551 84.6535 75.857 84.1957 75.6868C83.7379 75.5165 83.2408 75.4813 82.7636 75.5854C82.2864 75.6894 81.8491 75.9284 81.5037 76.2737C81.1584 76.6191 80.9194 77.0564 80.8154 77.5336C80.7113 78.0108 80.7465 78.5079 80.9168 78.9657C81.087 79.4235 81.3852 79.8227 81.7757 80.116C82.1663 80.4093 82.6329 80.5842 83.12 80.62L83.2 82.16L83.28 83.69H83.13C82.4498 83.758 81.8151 84.0625 81.3363 84.5504C80.8576 85.0383 80.5651 85.6787 80.51 86.36L80.61 91.42L80.35 91.51C76.1837 92.9604 71.8969 94.0379 67.54 94.73C64.1 95.2 61.64 95.02 60.54 94.09C56.03 90.34 63.94 67.56 67.67 63.89C69.83 61.75 74.25 60.83 79.67 59.78C79.8554 59.0857 80.299 58.4883 80.91 58.11H80.97C84.2879 57.3912 87.7172 57.3538 91.05 58L91.42 58.13C91.7791 58.2504 92.0967 58.4704 92.3356 58.7643C92.5746 59.0582 92.7253 59.4139 92.77 59.79C92.77 59.79 100.86 60.69 102.3 62.37C105.98 66.68 109.73 71.07 112.55 74.09C112.75 74.3 118.03 69.36 119.87 64.53H119.93C119.93 64.53 121.93 67.53 125.34 66.97C125.07 67.51 116.03 85.54 111.74 83.97C108.11 82.63 104.17 79.67 99.98 76.15C98.35 74.72 104.89 104 105 104.6H100.74L86.19 104.68H84L66.53 104.77C66.6004 101.634 66.8878 98.5064 67.39 95.41C71.7913 94.3483 76.1311 93.0463 80.39 91.51L80.65 91.59C81.6995 92.0561 82.7912 92.4211 83.91 92.68L84.03 94.68C84.0213 94.8762 84.0879 95.0683 84.2162 95.217C84.3444 95.3657 84.5247 95.4598 84.72 95.48H89.56C89.7553 95.4598 89.9356 95.3657 90.0638 95.217C90.1921 95.0683 90.2587 94.8762 90.25 94.68L90.37 92.46C91.4 92.06 92 91.46 92 91C92.0113 90.8569 91.9898 90.7132 91.9369 90.5797C91.8841 90.4463 91.8014 90.3267 91.6953 90.2302C91.5891 90.1337 91.4622 90.0627 91.3243 90.0228C91.1865 89.9829 91.0413 89.9751 90.9 90H90.85H90.93C91.2226 89.825 91.4712 89.5853 91.6567 89.2993C91.8422 89.0133 91.9596 88.6885 92 88.35C92.0121 88.2003 91.9902 88.0498 91.9362 87.9096C91.8821 87.7695 91.7971 87.6433 91.6876 87.5405C91.5781 87.4377 91.4468 87.3609 91.3035 87.3158C91.1603 87.2707 91.0087 87.2585 90.86 87.28L90.78 87.21Z" fill="black"/>
<path d="M118.1 150.71H132.07" stroke="black" stroke-width="0.86" stroke-miterlimit="10"/>
<path d="M149.19 150.71H155.25V158.83H44.82V150.71H107.45" stroke="black" stroke-width="0.86" stroke-miterlimit="10"/>
<path d="M85.27 150.71H44.82V158.83H85.27V150.71Z" fill="black"/>
<path d="M132.92 128.07H161.79V172.22H38.24V128.07H102.07" stroke="black" stroke-width="0.86" stroke-miterlimit="10"/>
<path d="M53.97 133.99C54.8592 133.99 55.58 133.269 55.58 132.38C55.58 131.491 54.8592 130.77 53.97 130.77C53.0808 130.77 52.36 131.491 52.36 132.38C52.36 133.269 53.0808 133.99 53.97 133.99Z" stroke="black" stroke-width="0.86" stroke-miterlimit="10"/>
<path d="M48.28 133.99C49.1692 133.99 49.89 133.269 49.89 132.38C49.89 131.491 49.1692 130.77 48.28 130.77C47.3908 130.77 46.67 131.491 46.67 132.38C46.67 133.269 47.3908 133.99 48.28 133.99Z" stroke="black" stroke-width="0.86" stroke-miterlimit="10"/>
<path d="M42.59 133.99C43.4792 133.99 44.2 133.269 44.2 132.38C44.2 131.491 43.4792 130.77 42.59 130.77C41.7008 130.77 40.98 131.491 40.98 132.38C40.98 133.269 41.7008 133.99 42.59 133.99Z" stroke="black" stroke-width="0.86" stroke-miterlimit="10"/>
<path d="M138 47.46C137.64 49 135.1 61.46 134.55 64.24" stroke="black" stroke-width="0.86" stroke-linecap="round" stroke-linejoin="round"/>
<path d="M134.51 64.23C133.654 63.6448 132.685 63.2469 131.664 63.0625C130.644 62.8781 129.596 62.9114 128.59 63.16" stroke="black" stroke-width="0.86" stroke-linecap="round" stroke-linejoin="round"/>
<path d="M121.36 62.8C116.14 61.08 111 64.23 111 64.23C111.43 59.23 111.83 46.47 111.83 46.47C120.22 42.66 125.03 47.9 125.57 48.54V48.6C127.77 44.99 134.89 44.79 137.93 47.45" stroke="black" stroke-width="0.86" stroke-linecap="round" stroke-linejoin="round"/>
<path d="M88.8 77.87H83.71C83.6045 77.8835 83.5028 77.9179 83.4108 77.9711C83.3187 78.0244 83.2383 78.0954 83.174 78.1802C83.1098 78.2649 83.0631 78.3616 83.0366 78.4646C83.0102 78.5676 83.0045 78.6748 83.02 78.78L83.12 80.6L83.2 82.14L83.28 83.67V84.57V84.65" stroke="black" stroke-width="0.86" stroke-miterlimit="10"/>
<path d="M90.61 84.25L90.7 82.44L90.9 78.78C90.917 78.6754 90.9127 78.5684 90.8874 78.4654C90.8622 78.3625 90.8165 78.2657 90.753 78.1808C90.6896 78.0959 90.6097 78.0246 90.5181 77.9712C90.4265 77.9178 90.3252 77.8834 90.22 77.87H89.82" stroke="black" stroke-width="0.86" stroke-miterlimit="10"/>
<path d="M83.89 92.68L84.01 94.68C84.0013 94.8762 84.0679 95.0683 84.1962 95.217C84.3244 95.3657 84.5047 95.4598 84.7 95.48H89.54C89.7354 95.4598 89.9156 95.3657 90.0439 95.217C90.1721 95.0683 90.2387 94.8762 90.23 94.68L90.35 92.46V92.39" stroke="black" stroke-width="0.86" stroke-miterlimit="10"/>
<path d="M83.3 84.49V84.57C84.16 86.81 89.38 85.73 90.58 84.25C90.6581 84.1492 90.722 84.0381 90.77 83.92" stroke="black" stroke-width="0.86" stroke-miterlimit="10"/>
<path d="M90.79 83.92C90.95 83.9052 91.1114 83.9253 91.2629 83.9789C91.4144 84.0325 91.5524 84.1184 91.6675 84.2306C91.7826 84.3428 91.8719 84.4787 91.9293 84.6288C91.9867 84.7789 92.0108 84.9397 92 85.1C91.958 85.5159 91.8296 85.9185 91.6229 86.2818C91.4163 86.6452 91.136 86.9613 90.8 87.21C90.1405 87.7174 89.3785 88.075 88.5668 88.258C87.7552 88.4411 86.9134 88.4452 86.1 88.27" stroke="black" stroke-width="0.86" stroke-miterlimit="10" stroke-linecap="round"/>
<path d="M90.84 87.28C90.9902 87.2551 91.144 87.2648 91.2898 87.3084C91.4357 87.352 91.5696 87.4283 91.6815 87.5315C91.7934 87.6347 91.8802 87.7621 91.9354 87.9039C91.9906 88.0458 92.0127 88.1983 92 88.35C91.9553 88.6922 91.8317 89.0193 91.6391 89.3056C91.4465 89.5919 91.1901 89.8296 90.89 90H90.81C89.4192 90.8213 87.7797 91.1158 86.19 90.83" stroke="black" stroke-width="0.86" stroke-miterlimit="10" stroke-linecap="round"/>
<path d="M90.85 90.05H90.9C91.037 90.0263 91.1775 90.0333 91.3115 90.0704C91.4454 90.1076 91.5695 90.174 91.6747 90.2648C91.7799 90.3557 91.8637 90.4688 91.9199 90.5959C91.9762 90.723 92.0035 90.861 92 91C92 91.49 91.42 92.09 90.37 92.53C88.2922 93.2728 86.0353 93.3532 83.91 92.76C82.7911 92.5012 81.6995 92.1362 80.65 91.67" stroke="black" stroke-width="0.86" stroke-miterlimit="10" stroke-linecap="round"/>
<path d="M83.27 82.14C85.27 81.35 85.8 83.14 87.78 83.6C88.1974 83.6876 88.6262 83.7078 89.05 83.66H89.19C89.5131 83.5831 89.8151 83.4356 90.0745 83.2281C90.3338 83.0206 90.544 82.7583 90.69 82.46" stroke="black" stroke-width="0.86" stroke-miterlimit="10" stroke-linecap="round"/>
<path d="M89.19 83.56L90.02 77.87L90.64 73.62L95.26 73.6L95.37 72.28H89.48L88.65 77.87L87.82 83.44" stroke="black" stroke-width="0.86" stroke-linecap="round" stroke-linejoin="round"/>
<path d="M83.31 80.61H83.12C82.6329 80.5742 82.1663 80.3993 81.7757 80.106C81.3851 79.8127 81.087 79.4135 80.9168 78.9557C80.7465 78.4979 80.7113 78.0008 80.8154 77.5236C80.9194 77.0464 81.1583 76.6091 81.5037 76.2637C81.8491 75.9184 82.2864 75.6794 82.7636 75.5754C83.2408 75.4713 83.7379 75.5065 84.1957 75.6768C84.6534 75.847 85.0527 76.1451 85.346 76.5357C85.6393 76.9263 85.8142 77.3929 85.85 77.88C85.85 77.94 85.85 78 85.85 78.06" stroke="black" stroke-width="0.86" stroke-linejoin="round"/>
<path d="M86.08 104.72H83.82" stroke="black" stroke-width="0.86" stroke-miterlimit="10"/>
<path d="M81.91 36.64C82.04 35.8 82.18 34.81 82.39 33.81C82.639 32.1608 83.3032 30.602 84.32 29.28C86.64 26.76 89.09 27.75 91.14 29.94C91.7328 30.5621 92.2746 31.2309 92.76 31.94C94.2192 34.1081 95.3324 36.4899 96.06 39C96.89 42.47 91.88 50.2 90.48 50.73C90.316 50.7964 90.1449 50.8434 89.97 50.87C87.9 51.23 85.31 49.35 84.45 47.52" stroke="black" stroke-width="0.86" stroke-miterlimit="10" stroke-linecap="round"/>
<path d="M80.88 57.92C80.98 52.1 80.73 46.81 81.31 41.01" stroke="black" stroke-width="0.86" stroke-miterlimit="10"/>
<path d="M89.91 50.67L89.97 50.91C90.44 53.21 90.54 56.02 91.42 58.1V58.21" stroke="black" stroke-width="0.86" stroke-miterlimit="10"/>
<path d="M82.71 37.7C82.4671 37.3284 82.1744 36.992 81.84 36.7C79.54 34.7 77.95 39.12 78.84 40.39C79.104 40.6876 79.4478 40.9033 79.8307 41.0114C80.2135 41.1195 80.6193 41.1155 81 41H81.26C81.4523 40.9562 81.6375 40.8855 81.81 40.79" stroke="black" stroke-width="0.86" stroke-miterlimit="10" stroke-linecap="round"/>
<path d="M92.74 32C93.29 32 101.09 30.5 100.01 28.31C99.39 27.05 95.26 28.31 91.12 29.96C87.2 31.52 83.27 33.42 82.37 33.83L82.22 33.9" stroke="black" stroke-width="0.86" stroke-miterlimit="10"/>
<path d="M91.68 39.61C92.4552 39.2757 93.3163 39.1952 94.14 39.38" stroke="black" stroke-width="0.86" stroke-miterlimit="10" stroke-linecap="round"/>
<path d="M89.21 39.68C88.8419 39.4306 88.4013 39.3108 87.9576 39.3398C87.5139 39.3688 87.0925 39.5448 86.76 39.84" stroke="black" stroke-width="0.86" stroke-miterlimit="10" stroke-linecap="round"/>
<path d="M81.4 38.48C80.9603 38.8595 80.4008 39.072 79.82 39.08" stroke="black" stroke-width="0.86" stroke-miterlimit="10" stroke-linecap="round"/>
<path d="M91.65 39.62C91.15 40.72 91.65 42.48 91.87 43.62C91.98 44.41 92.14 45.93 90.67 45.4" stroke="black" stroke-width="0.86" stroke-miterlimit="10" stroke-linecap="round"/>
<path d="M117.35 126.5C117.26 124.32 117.15 122.65 117 121.32C115.83 110.94 107.19 104.82 86.14 104.72" stroke="black" stroke-width="0.86" stroke-miterlimit="10"/>
<path d="M118.26 158.54V158.2C118.05 151.72 117.91 146.33 117.79 141.82C117.79 141.6 117.79 141.37 117.79 141.15C117.7 137.39 117.62 134.26 117.55 131.64C117.55 130.98 117.55 130.36 117.49 129.76C117.49 128.57 117.42 127.49 117.38 126.51" stroke="black" stroke-width="0.86" stroke-miterlimit="10"/>
<path d="M102.79 131.58C102.79 131.52 102.79 131.44 102.73 131.36L102.55 130.71C102.28 129.78 101.93 128.53 101.8 128.08H81C74.62 127.87 71 124.36 68.91 119.68C66.91 115.17 66.49 109.57 66.58 104.82C66.6453 101.684 66.9326 98.5557 67.44 95.46C67.51 95.05 67.56 94.8 67.57 94.72" stroke="black" stroke-width="0.86" stroke-miterlimit="10"/>
<path d="M118.07 158.21H109.07C108.01 152.02 106.78 146.53 105.61 141.84C104.61 137.7 103.61 134.18 102.78 131.38L102.6 130.73" stroke="black" stroke-width="0.86" stroke-miterlimit="10"/>
<path d="M137.39 140.17L132.79 128.09C131.06 123.57 129.6 119.75 129.32 119.09C124.84 107.95 124.41 104.69 102.01 104.68H100.69L86.14 104.76H84L66.53 104.85" stroke="black" stroke-width="0.86" stroke-miterlimit="10"/>
<path d="M117.34 126.49C118 127.86 119.44 130.35 121.21 133.28C122.82 135.94 124.69 138.96 126.48 141.8C128.27 144.64 130.16 147.52 131.48 149.51L139.38 145.3L138 141.81C137.81 141.31 137.59 140.74 137.37 140.15" stroke="black" stroke-width="0.86" stroke-miterlimit="10"/>
<path d="M86.14 46.14C86.241 46.428 86.4066 46.6891 86.6241 46.9033C86.8417 47.1174 87.1053 47.279 87.3949 47.3755C87.6844 47.472 87.9923 47.501 88.2947 47.4602C88.5972 47.4193 88.8864 47.3098 89.14 47.14" stroke="black" stroke-width="0.86" stroke-miterlimit="10" stroke-linecap="round"/>
<path d="M125.73 64.35L125.94 64.04C127.36 61.75 126.12 59.5 126.21 58.84C126.44 57.27 128 57.76 128.4 59.98C128.604 61.0239 128.648 62.0929 128.53 63.15C128.504 64.0466 128.183 64.9096 127.617 65.6055C127.052 66.3015 126.272 66.7916 125.4 67C125.13 67.54 116.09 85.57 111.8 84C108.17 82.66 104.23 79.7 100.04 76.18C98.36 74.77 105.04 104.1 105.15 104.74H102.02" stroke="black" stroke-width="0.86" stroke-miterlimit="10" stroke-linecap="round"/>
<path d="M123.57 63.2C123.504 63.3244 123.431 63.4446 123.35 63.56" stroke="black" stroke-width="0.86" stroke-miterlimit="10" stroke-linecap="round"/>
<path d="M125.7 64.32C125.784 64.2333 125.861 64.1396 125.93 64.04C127.03 62.31 126.3 57.64 124.83 57.42C124.69 57.4016 124.548 57.4224 124.42 57.48C122.7 58.16 125.32 60.2 123.58 63.19" stroke="black" stroke-width="0.86" stroke-miterlimit="10" stroke-linecap="round"/>
<path d="M123.35 63.57C123.431 63.4512 123.504 63.3276 123.57 63.2C124.009 62.4339 124.144 61.5312 123.95 60.67C123.86 60.13 123.32 58.55 122.73 58.31C122.588 58.2468 122.43 58.2271 122.276 58.2534C122.123 58.2796 121.981 58.3506 121.867 58.4574C121.754 58.5643 121.675 58.7022 121.64 58.8539C121.605 59.0056 121.615 59.1643 121.67 59.31C122.51 61.63 122.07 62.42 121.43 62.87C120.79 63.32 120.24 63.39 120.04 63.97C119.989 64.143 119.929 64.3133 119.86 64.48C118.02 69.31 112.74 74.25 112.54 74.04C109.72 71.04 105.97 66.63 102.29 62.32C100.85 60.64 92.76 59.74 92.76 59.74C92.7153 59.3639 92.5647 59.0082 92.3257 58.7143C92.0867 58.4204 91.7691 58.2005 91.41 58.08L91.05 58C87.7147 57.3491 84.2818 57.3832 80.96 58.1H80.9C80.289 58.4783 79.8455 59.0757 79.66 59.77C74.26 60.77 69.84 61.77 67.66 63.88C63.92 67.55 56 90.33 60.52 94.08C61.64 95.01 64.1 95.19 67.52 94.72C71.8837 94.0291 76.1773 92.9515 80.35 91.5L80.61 91.41L80.51 86.35C80.5652 85.6687 80.8576 85.0283 81.3363 84.5404C81.8151 84.0525 82.4498 83.748 83.13 83.68" stroke="black" stroke-width="0.86" stroke-miterlimit="10" stroke-linecap="round"/>
<path d="M125.57 48.39L125.56 48.54L124.84 57.36" stroke="black" stroke-width="0.86" stroke-linecap="round" stroke-linejoin="round"/>
<path d="M119.93 64.52C119.93 64.52 121.93 67.52 125.34 66.96" stroke="black" stroke-width="0.86" stroke-miterlimit="10" stroke-linecap="round"/>
<path d="M66.43 95.62C66.74 95.62 67.06 95.53 67.43 95.46C71.8313 94.3983 76.1711 93.0964 80.43 91.56L81.64 91.15" stroke="white" stroke-width="0.86" stroke-linejoin="round"/>
<path d="M93.51 41.08C93.6161 41.08 93.7178 41.1222 93.7928 41.1972C93.8678 41.2722 93.91 41.3739 93.91 41.48C93.91 41.5861 93.8678 41.6878 93.7928 41.7629C93.7178 41.8379 93.6161 41.88 93.51 41.88C93.4039 41.88 93.3022 41.8379 93.2271 41.7629C93.1521 41.6878 93.11 41.5861 93.11 41.48C93.11 41.3739 93.1521 41.2722 93.2271 41.1972C93.3022 41.1222 93.4039 41.08 93.51 41.08Z" fill="black"/>
<path d="M88.65 41.08C88.7291 41.08 88.8065 41.1035 88.8722 41.1474C88.938 41.1914 88.9893 41.2539 89.0196 41.3269C89.0498 41.4 89.0577 41.4805 89.0423 41.5581C89.0269 41.6356 88.9888 41.7069 88.9328 41.7629C88.8769 41.8188 88.8056 41.8569 88.728 41.8723C88.6504 41.8878 88.57 41.8798 88.4969 41.8496C88.4238 41.8193 88.3614 41.768 88.3174 41.7022C88.2735 41.6365 88.25 41.5591 88.25 41.48C88.25 41.3739 88.2921 41.2722 88.3672 41.1972C88.4422 41.1222 88.5439 41.08 88.65 41.08Z" fill="black"/>
<path d="M109.01 165.91V167.66H132.16V165.76H132.12H109.02H109.01V165.91Z" stroke="black" stroke-width="0.86" stroke-linecap="round" stroke-linejoin="round"/>
<path d="M135.08 156.18L147.26 149.62" stroke="white" stroke-width="0.86" stroke-miterlimit="10"/>
<path d="M134.98 156.39L135.81 157.92L156.17 146.93L155.27 145.25L155.24 145.27L134.91 156.25H134.9L134.98 156.39Z" stroke="black" stroke-width="0.86" stroke-linecap="round" stroke-linejoin="round"/>
<path d="M74.59 112C74.7 116 72.17 118.49 68.88 119.67C67.5917 120.122 66.2439 120.381 64.88 120.44" stroke="black" stroke-width="0.86" stroke-miterlimit="10" stroke-linecap="round"/>
<path d="M139.49 145.28C139.79 145.19 140.79 145.14 142.14 145.02C144.866 144.853 147.557 144.318 150.14 143.43C151.68 142.82 153.42 142.74 154.51 143.98C154.817 144.331 155.051 144.738 155.2 145.18V145.27L135.2 156.12L131.51 149.65L139.49 145.28Z" stroke="black" stroke-width="0.86" stroke-linecap="round" stroke-linejoin="round"/>
<path d="M81.52 85.67C79.23 86.08 70.67 87.36 68.06 87.67C68.7469 83.1582 70.0456 78.7611 71.92 74.6" stroke="white" stroke-width="0.86" stroke-miterlimit="10" stroke-linecap="round"/>
<path d="M136.09 136.54H161.58" stroke="black" stroke-width="0.86" stroke-miterlimit="10"/>
<path d="M117.69 136.54H123.1" stroke="black" stroke-width="0.86" stroke-miterlimit="10"/>
<path d="M38.21 136.54H104.17" stroke="black" stroke-width="0.86" stroke-miterlimit="10"/>
</svg>
