<svg width="200" height="200" viewBox="0 0 200 200" fill="none" xmlns="http://www.w3.org/2000/svg">
<path d="M97.9 185V185.05C97.41 182.38 99.39 181.21 101.49 180.96C102.546 180.825 103.589 180.604 104.61 180.3C108.04 179.3 111.25 177.65 111.87 177.51H121C120.95 181.6 120.93 184.3 120.94 185.01L97.9 185Z" fill="black"/>
<path d="M97.87 185.1H81.68C81.21 182.44 83.19 181.27 85.28 181.03C89.63 180.52 94.85 177.75 95.66 177.58H104.56C104.56 179.13 104.56 180.06 104.56 180.25V180.38C103.54 180.684 102.496 180.904 101.44 181.04C99.37 181.26 97.38 182.42 97.87 185.1Z" fill="black"/>
<path d="M84.52 87.57C85.52 80.93 86.52 74.38 87.21 70.57C87.21 70.57 79.9 74.65 79.14 78.05C78.86 79.3 82.95 85.53 84.51 87.54L84.52 87.57ZM114.22 79.85C113.22 80 112.22 80.1 111.29 80.17C111.027 79.8353 110.687 79.5694 110.298 79.3953C109.91 79.2211 109.485 79.1438 109.06 79.17C108.608 79.1357 108.155 79.2235 107.749 79.424C107.343 79.6245 106.998 79.9305 106.75 80.31C102.31 80.31 100.02 80.75 99.3 81.17C97.72 82.09 96.82 83.08 96.87 84.94C96.9228 86.5882 97.3869 88.197 98.22 89.62C98.3404 89.8087 98.4777 89.986 98.63 90.15C99.2278 90.7719 100.048 91.1314 100.91 91.15C101.27 91.15 102.46 90.93 102.6 90.47C102.74 90.01 102.36 89.6 102.15 89.47C101.7 89.09 101.15 89.22 100.67 89.15C99.49 88.15 103.38 86.45 107.28 86.49H108.21H110.57C111.7 86.49 112.9 86.39 114.14 86.29C113.713 85.2737 113.493 84.1824 113.493 83.08C113.493 81.9777 113.713 80.8864 114.14 79.87L114.22 79.85ZM119.5 78.41C119.86 78.2256 120.196 77.9972 120.5 77.73C122.68 75.73 122.5 72.58 118.87 69.82C118.87 69.82 119.14 74.29 119.44 78.33L119.5 78.41ZM119.97 85.52C120.65 94.78 121.49 105.57 121.6 107.36L82.24 107.45C82.24 105.65 82.58 102.51 83.03 98.75C83.42 95.43 83.93 91.63 84.46 87.85H84.36C82.7773 89.2188 81.6272 91.0187 81.05 93.03C80.9957 93.581 81.0226 94.1369 81.13 94.68H81.05C73.81 89.57 69.32 82.48 68 77.4C66.5 71.68 80.78 60.75 84.2 58.4C87.99 55.8 96.37 54.52 96.37 54.52C96.7 53.69 96.87 52.94 97.67 52.45L97.86 52.37C101.357 51.8494 104.913 51.8494 108.41 52.37H108.52C109.33 52.52 109.83 53.87 109.78 54.55C109.78 54.55 118.54 55.13 120.7 56.35C123.59 58 135 72.69 132.06 78.89C130.33 82.53 125.33 84.5 120 85.52H119.97Z" fill="black"/>
<path d="M110 82.48C109.925 83.9027 110.157 85.3249 110.68 86.65" stroke="black" stroke-width="0.86" stroke-miterlimit="10"/>
<path d="M107.64 82.32C107.542 83.8114 107.771 85.3061 108.31 86.7" stroke="black" stroke-width="0.86" stroke-miterlimit="10"/>
<path d="M114.05 86.26C112.05 86.37 108.8 86.54 107.31 86.51" stroke="black" stroke-width="0.86" stroke-linejoin="round"/>
<path d="M104.83 153.32C104.7 167.76 104.5 179.52 104.55 180.22" stroke="black" stroke-width="0.86" stroke-miterlimit="10"/>
<path d="M120 85.57C120.68 94.83 121.52 105.62 121.63 107.41L82.27 107.5C82.41 101.29 85.66 79.03 87.27 70.61C87.27 70.61 79.91 74.68 79.15 78.08C78.87 79.33 83.01 85.56 84.57 87.57" stroke="black" stroke-width="0.86" stroke-linejoin="round"/>
<path d="M83.1 98.73C82.5233 99.3648 81.7788 99.8237 80.9525 100.054C80.1263 100.284 79.2518 100.276 78.43 100.03C77.16 99.55 76.6 98.89 77.43 97.94C78.26 96.99 79.34 97.73 80.32 97.46C81.96 97 80.77 94.3 81.03 93.07C81.6072 91.0587 82.7573 89.2588 84.34 87.89" stroke="black" stroke-width="0.86" stroke-miterlimit="10"/>
<path d="M118.94 70.65C118.94 70.13 118.94 69.82 118.94 69.82C122.53 72.58 122.75 75.73 120.56 77.73C119.27 78.91 114.27 79.87 114.27 79.87C113.825 80.8735 113.586 81.9556 113.565 83.0529C113.545 84.1502 113.743 85.2406 114.15 86.26C121.44 85.76 129.66 84.04 132.15 78.89C135.09 72.69 123.68 57.97 120.78 56.32C118.62 55.1 109.86 54.52 109.86 54.52C109.86 53.84 109.41 52.52 108.6 52.34C105.1 51.68 98.52 51.98 97.75 52.45C96.98 52.92 96.75 53.69 96.45 54.52C96.45 54.52 88.07 55.8 84.28 58.4C80.86 60.75 66.58 71.68 68.08 77.4C69.41 82.48 73.9 89.57 81.15 94.73" stroke="black" stroke-width="0.86" stroke-linejoin="round"/>
<path d="M119.46 78.33C119.26 75.68 119.04 72.22 118.93 70.58" stroke="black" stroke-width="0.86" stroke-linejoin="round"/>
<path d="M106.83 80.31C102.34 80.31 100.03 80.75 99.3 81.17C97.72 82.09 96.82 83.08 96.87 84.94C96.8991 86.8348 97.5255 88.6721 98.66 90.19C99.2578 90.8118 100.078 91.1714 100.94 91.19C101.3 91.19 102.49 90.97 102.63 90.51C102.77 90.05 102.39 89.64 102.18 89.51C101.73 89.13 101.18 89.26 100.7 89.19C99.51 88.19 103.47 86.47 107.41 86.54" stroke="black" stroke-width="0.86" stroke-miterlimit="10"/>
<path d="M109.06 82.46C110.397 82.46 111.48 81.7213 111.48 80.81C111.48 79.8987 110.397 79.16 109.06 79.16C107.723 79.16 106.64 79.8987 106.64 80.81C106.64 81.7213 107.723 82.46 109.06 82.46Z" stroke="black" stroke-width="0.86" stroke-miterlimit="10"/>
<path d="M114.77 111C114.61 116.49 119.49 119.19 124.46 119.44" stroke="black" stroke-width="0.86" stroke-miterlimit="10" stroke-linecap="round"/>
<path d="M99.25 116C99.92 137.86 106.13 159.44 111.79 177.44V177.56C110.99 177.73 105.79 180.5 101.41 181.01C99.32 181.26 97.33 182.42 97.82 185.1L120.91 185.2C120.82 183.9 121.59 136.64 121.2 107.71" stroke="black" stroke-width="0.86" stroke-linecap="round" stroke-linejoin="round"/>
<path d="M83.2 107.88C83.82 135.48 89.86 159.18 95.64 177.55C94.83 177.72 89.64 180.49 85.26 181C83.16 181.25 81.18 182.41 81.67 185.09H98.07" stroke="black" stroke-width="0.86" stroke-linecap="round" stroke-linejoin="round"/>
<path d="M98.56 30.94C98.87 28.67 99.28 25.32 100.86 23.56C105.93 17.89 111.8 29.43 112.75 33.14C113.63 36.6 108.75 44.4 107.34 44.95C105.23 45.8 102.22 43.8 101.26 41.83" stroke="black" stroke-width="0.86" stroke-miterlimit="10" stroke-linecap="round"/>
<path d="M97.85 52.53C97.85 46.61 97.53 41.23 98.02 35.32" stroke="black" stroke-width="0.86" stroke-miterlimit="10"/>
<path d="M106.77 44.86C107.33 47.15 107.45 50.06 108.44 52.13" stroke="black" stroke-width="0.86" stroke-miterlimit="10"/>
<path d="M99.38 32C96.58 27.88 94.52 33.29 95.59 34.71C95.9817 35.092 96.4905 35.3312 97.0346 35.3892C97.5787 35.4473 98.1265 35.3207 98.59 35.03" stroke="black" stroke-width="0.86" stroke-miterlimit="10" stroke-linecap="round"/>
<path d="M109.32 26.13C109.66 26.13 117.69 24.54 116.56 22.33C115.27 19.82 99.81 27.76 98.85 28.18" stroke="black" stroke-width="0.86" stroke-miterlimit="10"/>
<path d="M105.05 33.83C104.657 33.6642 104.23 33.5932 103.805 33.6227C103.379 33.6523 102.966 33.7815 102.6 34" stroke="black" stroke-width="0.86" stroke-miterlimit="10" stroke-linecap="round"/>
<path d="M110.39 33.83C109.995 33.6641 109.567 33.5931 109.14 33.6226C108.713 33.6522 108.298 33.7814 107.93 34" stroke="black" stroke-width="0.86" stroke-miterlimit="10" stroke-linecap="round"/>
<path d="M106.46 42.64C107.1 41.87 108.46 42.49 109.1 42.9" stroke="black" stroke-width="0.86" stroke-linecap="round" stroke-linejoin="round"/>
<path d="M98.07 32.79C97.6436 33.1821 97.0892 33.406 96.51 33.42" stroke="black" stroke-width="0.86" stroke-miterlimit="10" stroke-linecap="round"/>
<path d="M103.94 35.7C104.172 35.7 104.36 35.5119 104.36 35.28C104.36 35.048 104.172 34.86 103.94 34.86C103.708 34.86 103.52 35.048 103.52 35.28C103.52 35.5119 103.708 35.7 103.94 35.7Z" fill="black"/>
<path d="M109.13 35.7C109.362 35.7 109.55 35.5119 109.55 35.28C109.55 35.048 109.362 34.86 109.13 34.86C108.898 34.86 108.71 35.048 108.71 35.28C108.71 35.5119 108.898 35.7 109.13 35.7Z" fill="black"/>
<path d="M107.91 33.2C107.42 34.42 107.99 36.34 108.18 37.61C108.3 38.47 108.49 40.14 107 39.61" stroke="black" stroke-width="0.86" stroke-miterlimit="10" stroke-linecap="round"/>
<path d="M95.27 177.55H104.41" stroke="black" stroke-width="0.86" stroke-miterlimit="10"/>
<path d="M111.83 177.55H120.97" stroke="black" stroke-width="0.86" stroke-miterlimit="10"/>
<path d="M120.95 185.05H97.87V186.95H120.95V185.05Z" stroke="black" stroke-width="0.86" stroke-linecap="round" stroke-linejoin="round"/>
<path d="M97.84 185.05H81.67V186.95H97.84V185.05Z" stroke="black" stroke-width="0.86" stroke-linecap="round" stroke-linejoin="round"/>
<path d="M98.31 89.75C98.1193 89.4009 98.0055 89.0151 97.9762 88.6184C97.9469 88.2217 98.0027 87.8233 98.14 87.45C98.4536 86.6983 99.0005 86.0673 99.7 85.65" stroke="black" stroke-width="0.86" stroke-linecap="round" stroke-linejoin="round"/>
<path d="M97.43 87.63C97.2508 87.2967 97.1439 86.9294 97.1164 86.5521C97.0888 86.1747 97.1412 85.7958 97.27 85.44C97.5604 84.7254 98.0721 84.1226 98.73 83.72" stroke="black" stroke-width="0.86" stroke-linecap="round" stroke-linejoin="round"/>
<path d="M78.34 97.39C78.23 95.81 80.42 96.17 81.17 96.52" stroke="black" stroke-width="0.86" stroke-miterlimit="10"/>
<path d="M79.51 96.09C79.39 95.09 80.51 95.15 81.06 95.24" stroke="black" stroke-width="0.86" stroke-miterlimit="10"/>
<path d="M111.24 80.13C112.216 80.1059 113.191 80.0325 114.16 79.91" stroke="black" stroke-width="0.86" stroke-miterlimit="10"/>
<path d="M120 77.22C118.34 78.36 114.66 79.05 114.66 79.05C112.2 82.56 114.32 86.91 114.34 86.91C116.426 86.8038 118.504 86.5667 120.56 86.2" stroke="white" stroke-width="0.86" stroke-linejoin="round"/>
<path d="M111.46 177.67C110.63 177.88 105.82 180.5 101.46 181.01C99.36 181.26 97.82 182.35 97.86 185.43" stroke="white" stroke-width="0.86" stroke-linejoin="round"/>
<path d="M85 20.44V17.67H72.25V20.44C72.2816 21.395 72.5717 22.3235 73.0895 23.1265C73.6073 23.9296 74.3332 24.5771 75.19 25C75.4267 25.136 75.6285 25.3251 75.7795 25.5524C75.9305 25.7798 76.0265 26.0392 76.06 26.31C76.0385 26.5818 75.9482 26.8436 75.7978 27.071C75.6474 27.2984 75.4417 27.4839 75.2 27.61C74.3369 28.0258 73.6024 28.6673 73.0742 29.4665C72.5461 30.2658 72.244 31.193 72.2 32.15V35H85V32.2C84.9542 31.2448 84.6513 30.3196 84.1233 29.5222C83.5952 28.7249 82.8617 28.085 82 27.67C81.7545 27.545 81.5454 27.3588 81.393 27.1293C81.2405 26.8998 81.15 26.6348 81.13 26.36C81.13 25.61 81.99 25.06 81.99 25.06C82.8673 24.6402 83.6122 23.9872 84.1431 23.1723C84.674 22.3574 84.9705 21.4121 85 20.44Z" stroke="black" stroke-width="0.86" stroke-miterlimit="10"/>
<path d="M84.83 34.96H72.45C71.8977 34.96 71.45 35.4077 71.45 35.96V35.97C71.45 36.5223 71.8977 36.97 72.45 36.97H84.83C85.3823 36.97 85.83 36.5223 85.83 35.97V35.96C85.83 35.4077 85.3823 34.96 84.83 34.96Z" stroke="black" stroke-width="0.86" stroke-miterlimit="10"/>
<path d="M84.83 15.66H72.45C71.8977 15.66 71.45 16.1077 71.45 16.66V16.67C71.45 17.2223 71.8977 17.67 72.45 17.67H84.83C85.3823 17.67 85.83 17.2223 85.83 16.67V16.66C85.83 16.1077 85.3823 15.66 84.83 15.66Z" stroke="black" stroke-width="0.86" stroke-miterlimit="10"/>
<path d="M79.76 27.88V26.24C79.76 25.43 80.76 24.6 81.42 24.16C82.3774 23.5428 83.1021 22.6246 83.48 21.55C83.547 21.3571 83.5669 21.1509 83.538 20.9487C83.509 20.7465 83.4321 20.5542 83.3137 20.3878C83.1952 20.2214 83.0387 20.0857 82.8571 19.9922C82.6756 19.8986 82.4742 19.8499 82.27 19.85H75C74.7957 19.8499 74.5944 19.8986 74.4129 19.9922C74.2313 20.0857 74.0748 20.2214 73.9563 20.3878C73.8379 20.5542 73.761 20.7465 73.732 20.9487C73.7031 21.1509 73.723 21.3571 73.79 21.55C74.1679 22.6246 74.8926 23.5428 75.85 24.16C76.53 24.6 77.68 25.36 77.68 26.16V27.9C77.68 28.53 76.68 29.12 76.09 29.44C75.3676 29.8592 74.758 30.4479 74.3137 31.1552C73.8695 31.8625 73.604 32.6672 73.54 33.5C73.5373 33.5476 73.5443 33.5953 73.5607 33.6401C73.577 33.6849 73.6024 33.7259 73.6352 33.7605C73.6679 33.7952 73.7075 33.8228 73.7513 33.8416C73.7951 33.8604 73.8423 33.8701 73.89 33.87H83.46C83.5038 33.8701 83.5471 33.8612 83.5873 33.8439C83.6274 33.8266 83.6637 33.8012 83.6936 33.7693C83.7236 33.7375 83.7468 33.6998 83.7616 33.6586C83.7765 33.6175 83.7827 33.5737 83.78 33.53C83.7234 32.6913 83.4611 31.8795 83.0164 31.1662C82.5716 30.4529 81.9581 29.86 81.23 29.44C80.67 29.13 79.76 28.51 79.76 27.88Z" fill="black"/>
</svg>
